<svg xmlns="http://www.w3.org/2000/svg" version="1.1" xmlns:xlink="http://www.w3.org/1999/xlink" xmlns:svgjs="http://svgjs.dev/svgjs" width="2000" height="676" viewBox="0 0 2000 676"><g transform="matrix(1,0,0,1,-1.2121212121212466,-1.2340898327706213)"><svg viewBox="0 0 396 134" data-background-color="#ffffff" preserveAspectRatio="xMidYMid meet" height="676" width="2000" xmlns="http://www.w3.org/2000/svg" xmlns:xlink="http://www.w3.org/1999/xlink"><g id="tight-bounds" transform="matrix(1,0,0,1,0.2400000000000091,0.2446272745432907)"><svg viewBox="0 0 395.52 133.51074545091342" height="133.51074545091342" width="395.52"><g><svg viewBox="0 0 647.4250352192298 218.5431813200426" height="133.51074545091342" width="395.52"><g transform="matrix(1,0,0,1,251.9050352192299,73.94202105194245)"><svg viewBox="0 0 395.52 70.65913921615771" height="70.65913921615771" width="395.52"><g id="textblocktransform"><svg viewBox="0 0 395.52 70.65913921615771" height="70.65913921615771" width="395.52" id="textblock"><g><svg viewBox="0 0 395.52 70.65913921615771" height="70.65913921615771" width="395.52"><g transform="matrix(1,0,0,1,0,0)"><svg width="395.52" viewBox="2.35 -36.5 207.94 37.15" height="70.65913921615771" data-palette-color="#085f63"><path d="M16.75 0.65L16.75 0.65Q12.6 0.65 9.35-1.07 6.1-2.8 4.23-5.95 2.35-9.1 2.35-13.45L2.35-13.45 2.35-35 11.7-35 11.7-13.3Q11.7-11.65 12.33-10.38 12.95-9.1 14.08-8.35 15.2-7.6 16.75-7.6L16.75-7.6Q18.3-7.6 19.45-8.35 20.6-9.1 21.2-10.38 21.8-11.65 21.8-13.3L21.8-13.3 21.8-35 31.25-35 31.25-13.3Q31.25-11.65 31.85-10.38 32.45-9.1 33.6-8.35 34.75-7.6 36.3-7.6L36.3-7.6Q37.85-7.6 38.98-8.35 40.1-9.1 40.73-10.38 41.35-11.65 41.35-13.3L41.35-13.3 41.35-35 50.65-35 50.65-13.45Q50.65-9.1 48.8-5.95 46.95-2.8 43.73-1.07 40.5 0.65 36.3 0.65L36.3 0.65Q34.3 0.65 32.5 0.2 30.7-0.25 29.2-1.1 27.7-1.95 26.5-3.15L26.5-3.15Q25.3-2 23.8-1.13 22.3-0.25 20.53 0.2 18.75 0.65 16.75 0.65ZM77.45 0L69.45 0Q65.1 0 61.77-1.55 58.45-3.1 56.52-6 54.6-8.9 54.6-12.85L54.6-12.85Q54.6-17.25 56.45-20.25 58.3-23.25 61.35-24.8 64.4-26.35 67.9-26.35L67.9-26.35Q71.7-26.35 74.47-24.78 77.25-23.2 78.77-20.35 80.3-17.5 80.3-13.7L80.3-13.7Q80.3-12.9 80.22-11.88 80.15-10.85 79.95-10.15L79.95-10.15 63.6-10.15Q63.9-9.05 64.57-8.33 65.25-7.6 66.37-7.25 67.5-6.9 68.95-6.9L68.95-6.9 77.45-6.9 77.45 0ZM63.3-15.2L63.3-15.2 72.1-15.2Q72.1-15.95 71.9-16.57 71.7-17.2 71.35-17.75 71-18.3 70.5-18.7 70-19.1 69.3-19.3 68.6-19.5 67.8-19.5L67.8-19.5Q66.75-19.5 65.95-19.15 65.15-18.8 64.6-18.23 64.05-17.65 63.72-16.88 63.4-16.1 63.3-15.2ZM105.94 0L84.5 0 84.5-35 105.34-35Q108.09-35 110.32-33.83 112.55-32.65 113.9-30.55 115.25-28.45 115.25-25.6L115.25-25.6Q115.25-24.05 114.65-22.63 114.05-21.2 113.05-20.08 112.05-18.95 110.64-18.15L110.64-18.15Q112.3-17.4 113.52-16.1 114.75-14.8 115.42-13.15 116.09-11.5 116.09-9.65L116.09-9.65Q116.09-6.75 114.72-4.58 113.34-2.4 111.05-1.2 108.75 0 105.94 0L105.94 0ZM94.05-13.95L94.05-7.55 103.64-7.55Q104.59-7.55 105.27-7.98 105.94-8.4 106.34-9.15 106.75-9.9 106.75-10.8L106.75-10.8Q106.75-11.7 106.34-12.4 105.94-13.1 105.27-13.53 104.59-13.95 103.64-13.95L103.64-13.95 94.05-13.95ZM94.05-27.25L94.05-21.25 102.59-21.25Q103.44-21.25 104.12-21.68 104.8-22.1 105.17-22.8 105.55-23.5 105.55-24.3L105.55-24.3Q105.55-25.1 105.17-25.78 104.8-26.45 104.14-26.85 103.5-27.25 102.59-27.25L102.59-27.25 94.05-27.25ZM130.84 0.65L130.84 0.65Q127.49 0.65 124.89-1.05 122.29-2.75 120.82-5.73 119.34-8.7 119.34-12.5L119.34-12.5Q119.34-16.5 121.12-19.65 122.89-22.8 126.09-24.58 129.29-26.35 133.64-26.35L133.64-26.35Q137.89-26.35 140.97-24.6 144.04-22.85 145.74-19.8 147.44-16.75 147.44-12.8L147.44-12.8 147.44 0 139.09 0 139.09-4 138.89-4Q138.19-2.65 137.09-1.6 135.99-0.55 134.47 0.05 132.94 0.65 130.84 0.65ZM133.44-6.9L133.44-6.9Q135.04-6.9 136.19-7.68 137.34-8.45 137.99-9.8 138.64-11.15 138.64-12.85L138.64-12.85Q138.64-14.55 137.99-15.83 137.34-17.1 136.19-17.88 135.04-18.65 133.44-18.65L133.44-18.65Q131.89-18.65 130.72-17.88 129.54-17.1 128.89-15.83 128.24-14.55 128.24-12.85L128.24-12.85Q128.24-11.15 128.89-9.8 129.54-8.45 130.72-7.68 131.89-6.9 133.44-6.9ZM161.14 0L152.49 0 152.49-14.8Q152.49-18.1 154.12-20.73 155.74-23.35 158.72-24.85 161.69-26.35 165.69-26.35L165.69-26.35Q169.69-26.35 172.59-24.85 175.49-23.35 177.04-20.73 178.59-18.1 178.59-14.8L178.59-14.8 178.59 0 169.89 0 169.89-14.4Q169.89-15.55 169.34-16.53 168.79-17.5 167.81-18.1 166.84-18.7 165.54-18.7L165.54-18.7Q164.29-18.7 163.27-18.1 162.24-17.5 161.69-16.53 161.14-15.55 161.14-14.4L161.14-14.4 161.14 0ZM192.19 0L183.54 0 183.54-36.5 192.19-36.5 192.19-16.15 194.99-16.15 200.54-25.75 210.29-25.75 203.54-15.2Q206.34-14 207.84-11.68 209.34-9.35 209.34-5.9L209.34-5.9 209.34 0 200.69 0 200.69-5.9Q200.69-7.15 200.11-8.1 199.54-9.05 198.56-9.6 197.59-10.15 196.39-10.15L196.39-10.15 192.19-10.15 192.19 0Z" opacity="1" transform="matrix(1,0,0,1,0,0)" fill="#085f63" class="wordmark-text-0" data-fill-palette-color="primary" id="text-0"></path></svg></g></svg></g></svg></g></svg></g><g><svg viewBox="0 0 218.5431813200426 218.5431813200426" height="218.5431813200426" width="218.5431813200426"><g><svg></svg></g><g id="icon-0"><svg viewBox="0 0 218.5431813200426 218.5431813200426" height="218.5431813200426" width="218.5431813200426"><g><path d="M0 109.272c0-60.349 48.923-109.272 109.272-109.272 60.349 0 109.272 48.923 109.271 109.272 0 60.349-48.923 109.272-109.271 109.271-60.349 0-109.272-48.923-109.272-109.271zM109.272 212.171c56.83 0 102.899-46.07 102.899-102.899 0-56.83-46.07-102.899-102.899-102.9-56.83 0-102.899 46.07-102.9 102.9 0 56.83 46.07 102.899 102.9 102.899z" data-fill-palette-color="accent" fill="#49beb7" stroke="transparent"></path><ellipse rx="108.17887475342108" ry="108.17887475342108" cx="109.2715906600213" cy="109.2715906600213" fill="#49beb7" stroke="transparent" stroke-width="0" fill-opacity="1" data-fill-palette-color="accent"></ellipse></g><g transform="matrix(1,0,0,1,62.804367827033644,47.572373620369646)"><svg viewBox="0 0 92.93444566597532 123.39843407930331" height="123.39843407930331" width="92.93444566597532"><g><svg xmlns="http://www.w3.org/2000/svg" xmlns:xlink="http://www.w3.org/1999/xlink" version="1.1" x="0" y="0" viewBox="4 0 24.1 32" style="enable-background:new 0 0 32 32;" xml:space="preserve" height="123.39843407930331" width="92.93444566597532" class="icon-cg-0" data-fill-palette-color="quaternary" id="cg-0"><g class="" display="none" fill="#ffffff" data-fill-palette-color="quaternary"><g class="" display="inline" fill="#ffffff" data-fill-palette-color="quaternary"><g fill="#ffffff" data-fill-palette-color="quaternary"><g fill="#ffffff" data-fill-palette-color="quaternary"><path class="" d="M16 11.5l7 5.3H9L16 11.5M16 10.2l-9.9 7.5H26L16 10.2 16 10.2z" fill="#ffffff" data-fill-palette-color="quaternary"></path></g></g><g fill="#ffffff" data-fill-palette-color="quaternary"><g fill="#ffffff" data-fill-palette-color="quaternary"><path class="" d="M24.7 29.4V31H7.3v-1.6H24.7M25.7 28.4H6.3V32h19.4L25.7 28.4 25.7 28.4z" fill="#ffffff" data-fill-palette-color="quaternary"></path></g></g><g fill="#ffffff" data-fill-palette-color="quaternary"><g fill="#ffffff" data-fill-palette-color="quaternary"><path class="" d="M22.2 19.9v6.3h-1.5v-6.3H22.2M23.2 18.9h-3.5v8.3h3.5V18.9L23.2 18.9z" fill="#ffffff" data-fill-palette-color="quaternary"></path></g></g><g fill="#ffffff" data-fill-palette-color="quaternary"><g fill="#ffffff" data-fill-palette-color="quaternary"><path class="" d="M16.8 19.9v6.3h-1.5v-6.3H16.8M17.8 18.9h-3.5v8.3h3.5V18.9L17.8 18.9z" fill="#ffffff" data-fill-palette-color="quaternary"></path></g></g><g fill="#ffffff" data-fill-palette-color="quaternary"><g fill="#ffffff" data-fill-palette-color="quaternary"><path class="" d="M11.4 19.9v6.3H9.8v-6.3H11.4M12.4 18.9H8.8v8.3h3.5V18.9L12.4 18.9z" fill="#ffffff" data-fill-palette-color="quaternary"></path></g></g></g><line class="" x1="16" y1="6.3" x2="16" y2="0" display="inline" fill="none" stroke="#ffffff" stroke-miterlimit="10"></line><line class="" x1="19.1" y1="7.2" x2="24" y2="2.2" display="inline" fill="none" stroke="#ffffff" stroke-miterlimit="10"></line><line class="" x1="21.8" y1="9.9" x2="28" y2="9.9" display="inline" fill="none" stroke="#ffffff" stroke-miterlimit="10"></line><g class="" display="inline" fill="#ffffff" data-fill-palette-color="quaternary"><line class="" x1="12.9" y1="7.2" x2="8" y2="2.2" fill="none" stroke="#ffffff" stroke-miterlimit="10"></line><line class="" x1="10.2" y1="9.9" x2="4" y2="9.9" fill="none" stroke="#ffffff" stroke-miterlimit="10"></line></g></g><g fill="#ffffff" data-fill-palette-color="quaternary"><g fill="#ffffff" data-fill-palette-color="quaternary"><path d="M26 17.7l-10-7.5-9.9 7.5H26zM23 16.7H9l7-5.3L23 16.7z" fill="#ffffff" data-fill-palette-color="quaternary"></path><path d="M6.3 32h19.4v-3.6H6.3V32zM7.3 29.4h17.4V31H7.3V29.4z" fill="#ffffff" data-fill-palette-color="quaternary"></path><path d="M19.6 18.9v8.3h3.5v-8.3H19.6zM22.2 26.2h-1.5v-6.3h1.5V26.2z" fill="#ffffff" data-fill-palette-color="quaternary"></path><path d="M14.2 18.9v8.3h3.5v-8.3H14.2zM16.8 26.2h-1.5v-6.3h1.5V26.2z" fill="#ffffff" data-fill-palette-color="quaternary"></path><path d="M8.8 18.9v8.3h3.5v-8.3H8.8zM11.4 26.2H9.8v-6.3h1.5V26.2z" fill="#ffffff" data-fill-palette-color="quaternary"></path><rect x="15.5" y="0" width="1" height="6.3" fill="#ffffff" data-fill-palette-color="quaternary"></rect><rect x="18.1" y="4.2" transform="matrix(0.7071 -0.7071 0.7071 0.7071 2.9927 16.633)" width="7" height="1" fill="#ffffff" data-fill-palette-color="quaternary"></rect><rect x="21.8" y="9.4" width="6.3" height="1" fill="#ffffff" data-fill-palette-color="quaternary"></rect><rect x="9.9" y="1.2" transform="matrix(0.7071 -0.7071 0.7071 0.7071 -0.2751 8.7528)" width="1" height="7" fill="#ffffff" data-fill-palette-color="quaternary"></rect><rect x="4" y="9.4" width="6.3" height="1" fill="#ffffff" data-fill-palette-color="quaternary"></rect></g></g></svg></g></svg></g></svg></g></svg></g></svg></g><defs></defs></svg><rect width="395.52" height="133.51074545091342" fill="none" stroke="none" visibility="hidden"></rect></g></svg></g></svg>